<!DOCTYPE svg PUBLIC "-//W3C//DTD SVG 1.1//EN" "http://www.w3.org/Graphics/SVG/1.1/DTD/svg11.dtd">

<!-- Uploaded to: SVG Repo, www.svgrepo.com, Transformed by: SVG Repo Mixer Tools -->
<svg fill="#000053" width="300px" height="300px" viewBox="-20 -20 240.00 240.00" data-name="Layer 1" id="Layer_1" xmlns="http://www.w3.org/2000/svg" stroke="#000053">

<g id="SVGRepo_bgCarrier" stroke-width="0" transform="translate(34,34), scale(0.66)"/>

<g id="SVGRepo_tracerCarrier" stroke-linecap="round" stroke-linejoin="round"/>

<g id="SVGRepo_iconCarrier">

<title/>

<path d="M170,70.5a10,10,0,0,0-10,10V140a20.06,20.06,0,0,1-20,20H60a20.06,20.06,0,0,1-20-20V60A20.06,20.06,0,0,1,60,40h59.5a10,10,0,0,0,0-20H60A40.12,40.12,0,0,0,20,60v80a40.12,40.12,0,0,0,40,40h80a40.12,40.12,0,0,0,40-40V80.5A10,10,0,0,0,170,70.5Zm-77,39a9.67,9.67,0,0,0,14,0L164.5,52a9.9,9.9,0,0,0-14-14L93,95.5A9.67,9.67,0,0,0,93,109.5Z"/>

</g>

</svg>